<svg width="354" height="75" viewBox="0 0 354 75" fill="none" xmlns="http://www.w3.org/2000/svg">
<g clip-path="url(#clip0_44_43753)">
<path d="M114.153 26.9863V23.1165H134.486V26.9863H126.609V48.6001H122.03V26.9863H114.153ZM143.896 48.9734C141.979 48.9734 140.325 48.5752 138.931 47.7788C137.546 46.9742 136.48 45.8377 135.733 44.3694C134.986 42.8928 134.613 41.1549 134.613 39.1557C134.613 37.1897 134.986 35.4642 135.733 33.9794C136.488 32.4862 137.541 31.3248 138.894 30.4953C140.246 29.6574 141.834 29.2385 143.659 29.2385C144.837 29.2385 145.949 29.4293 146.994 29.8109C148.048 30.1842 148.977 30.7649 149.781 31.5529C150.594 32.341 151.233 33.3448 151.698 34.5642C152.162 35.7753 152.394 37.2187 152.394 38.8944V40.2756H136.728V37.2395H148.077C148.068 36.3767 147.882 35.6094 147.517 34.9375C147.152 34.2573 146.642 33.7222 145.986 33.3323C145.339 32.9424 144.584 32.7475 143.722 32.7475C142.801 32.7475 141.992 32.9715 141.295 33.4194C140.598 33.8591 140.055 34.4398 139.665 35.1615C139.283 35.8749 139.088 36.6588 139.08 37.5132V40.1636C139.08 41.2752 139.283 42.2292 139.69 43.0256C140.096 43.8136 140.665 44.4192 141.395 44.8423C142.125 45.257 142.979 45.4644 143.958 45.4644C144.613 45.4644 145.206 45.3732 145.737 45.1907C146.268 44.9999 146.729 44.722 147.118 44.357C147.508 43.992 147.803 43.5399 148.002 43.0007L152.208 43.4735C151.942 44.5851 151.436 45.5557 150.69 46.3852C149.951 47.2065 149.006 47.8452 147.853 48.3015C146.7 48.7494 145.381 48.9734 143.896 48.9734ZM156.205 48.6001V29.4874H160.573V32.6728H160.772C161.12 31.5695 161.717 30.7192 162.564 30.122C163.418 29.5164 164.393 29.2136 165.488 29.2136C165.737 29.2136 166.015 29.2261 166.321 29.251C166.637 29.2675 166.898 29.2966 167.105 29.3381V33.4816C166.915 33.4153 166.612 33.3572 166.197 33.3074C165.791 33.2494 165.396 33.2203 165.015 33.2203C164.194 33.2203 163.455 33.3987 162.8 33.7554C162.153 34.1038 161.643 34.5891 161.27 35.2112C160.896 35.8334 160.71 36.551 160.71 37.3639V48.6001H156.205ZM170.098 48.6001V29.4874H174.403V32.735H174.627C175.025 31.64 175.685 30.7856 176.606 30.1717C177.527 29.5496 178.626 29.2385 179.903 29.2385C181.197 29.2385 182.288 29.5537 183.176 30.1842C184.072 30.8063 184.702 31.6566 185.067 32.735H185.266C185.689 31.6732 186.403 30.8271 187.406 30.1966C188.418 29.5579 189.617 29.2385 191.002 29.2385C192.761 29.2385 194.196 29.7943 195.308 30.9059C196.419 32.0175 196.975 33.6392 196.975 35.7712V48.6001H192.458V36.468C192.458 35.2817 192.143 34.4149 191.513 33.8674C190.882 33.3116 190.111 33.0337 189.198 33.0337C188.112 33.0337 187.261 33.3738 186.647 34.054C186.042 34.726 185.739 35.6011 185.739 36.6795V48.6001H181.322V36.2813C181.322 35.2942 181.023 34.5061 180.426 33.9171C179.837 33.3282 179.065 33.0337 178.111 33.0337C177.464 33.0337 176.875 33.1996 176.344 33.5314C175.814 33.8549 175.39 34.3153 175.075 34.9126C174.76 35.5016 174.602 36.1901 174.602 36.9782V48.6001H170.098ZM201.545 48.6001V29.4874H206.049V48.6001H201.545ZM203.81 26.7748C203.096 26.7748 202.482 26.5383 201.968 26.0655C201.454 25.5844 201.197 25.0078 201.197 24.3359C201.197 23.6557 201.454 23.0791 201.968 22.6063C202.482 22.1252 203.096 21.8846 203.81 21.8846C204.531 21.8846 205.145 22.1252 205.651 22.6063C206.166 23.0791 206.423 23.6557 206.423 24.3359C206.423 25.0078 206.166 25.5844 205.651 26.0655C205.145 26.5383 204.531 26.7748 203.81 26.7748ZM215.186 37.4012V48.6001H210.681V29.4874H214.987V32.735H215.211C215.65 31.6649 216.351 30.8146 217.314 30.1842C218.284 29.5537 219.483 29.2385 220.91 29.2385C222.229 29.2385 223.378 29.5206 224.356 30.0846C225.344 30.6487 226.107 31.4658 226.646 32.536C227.193 33.6061 227.463 34.9043 227.455 36.4307V48.6001H222.95V37.1275C222.95 35.85 222.619 34.8504 221.955 34.1287C221.3 33.407 220.391 33.0461 219.23 33.0461C218.442 33.0461 217.741 33.2203 217.127 33.5687C216.521 33.9088 216.044 34.4024 215.696 35.0495C215.356 35.6965 215.186 36.4804 215.186 37.4012ZM237.534 48.9858C236.323 48.9858 235.232 48.7702 234.261 48.3388C233.299 47.8991 232.536 47.2521 231.972 46.3977C231.416 45.5432 231.138 44.4897 231.138 43.2371C231.138 42.1587 231.337 41.2669 231.735 40.5618C232.133 39.8567 232.677 39.2926 233.365 38.8695C234.054 38.4465 234.829 38.1271 235.692 37.9114C236.563 37.6874 237.463 37.5257 238.392 37.4261C239.512 37.31 240.421 37.2063 241.117 37.115C241.814 37.0155 242.32 36.8662 242.635 36.6671C242.959 36.4597 243.121 36.1403 243.121 35.709V35.6343C243.121 34.6969 242.843 33.9711 242.287 33.4567C241.731 32.9424 240.931 32.6853 239.886 32.6853C238.782 32.6853 237.907 32.9258 237.26 33.407C236.621 33.8881 236.19 34.4563 235.966 35.1117L231.76 34.5144C232.092 33.3531 232.639 32.3825 233.403 31.6027C234.166 30.8146 235.099 30.2257 236.202 29.8358C237.306 29.4376 238.525 29.2385 239.861 29.2385C240.781 29.2385 241.698 29.3463 242.611 29.562C243.523 29.7777 244.357 30.1344 245.112 30.6321C245.867 31.1216 246.472 31.7894 246.928 32.6355C247.393 33.4816 247.625 34.5393 247.625 35.8085V48.6001H243.295V45.9746H243.146C242.872 46.5055 242.486 47.0032 241.988 47.4678C241.499 47.924 240.881 48.2932 240.134 48.5752C239.396 48.849 238.529 48.9858 237.534 48.9858ZM238.703 45.6759C239.608 45.6759 240.392 45.4976 241.055 45.1409C241.719 44.7759 242.229 44.2948 242.586 43.6975C242.951 43.1002 243.133 42.449 243.133 41.7439V39.4917C242.992 39.6078 242.752 39.7157 242.411 39.8152C242.08 39.9148 241.706 40.0019 241.292 40.0765C240.877 40.1512 240.466 40.2175 240.06 40.2756C239.653 40.3337 239.301 40.3835 239.002 40.4249C238.33 40.5162 237.729 40.6655 237.198 40.8729C236.667 41.0803 236.248 41.3706 235.941 41.7439C235.634 42.1089 235.481 42.5817 235.481 43.1624C235.481 43.992 235.783 44.6183 236.389 45.0413C236.995 45.4644 237.766 45.6759 238.703 45.6759ZM256.659 23.1165V48.6001H252.155V23.1165H256.659Z" fill="white"/>
<path d="M261.49 48.6001V23.1165H277.815V26.9863H266.106V33.9047H276.696V37.7745H266.106V48.6001H261.49ZM288.756 48.9734C286.89 48.9734 285.272 48.5628 283.903 47.7415C282.535 46.9203 281.473 45.7713 280.718 44.2948C279.971 42.8182 279.598 41.0927 279.598 39.1184C279.598 37.1441 279.971 35.4145 280.718 33.9296C281.473 32.4447 282.535 31.2916 283.903 30.4704C285.272 29.6491 286.89 29.2385 288.756 29.2385C290.623 29.2385 292.24 29.6491 293.609 30.4704C294.978 31.2916 296.035 32.4447 296.782 33.9296C297.537 35.4145 297.914 37.1441 297.914 39.1184C297.914 41.0927 297.537 42.8182 296.782 44.2948C296.035 45.7713 294.978 46.9203 293.609 47.7415C292.24 48.5628 290.623 48.9734 288.756 48.9734ZM288.781 45.3649C289.793 45.3649 290.639 45.087 291.319 44.5312C292 43.9671 292.506 43.2122 292.837 42.2665C293.178 41.3208 293.348 40.2673 293.348 39.106C293.348 37.9363 293.178 36.8786 292.837 35.9329C292.506 34.979 292 34.2199 291.319 33.6558C290.639 33.0917 289.793 32.8097 288.781 32.8097C287.744 32.8097 286.881 33.0917 286.193 33.6558C285.513 34.2199 285.002 34.979 284.662 35.9329C284.33 36.8786 284.165 37.9363 284.165 39.106C284.165 40.2673 284.33 41.3208 284.662 42.2665C285.002 43.2122 285.513 43.9671 286.193 44.5312C286.881 45.087 287.744 45.3649 288.781 45.3649ZM301.737 48.6001V29.4874H306.105V32.6728H306.304C306.653 31.5695 307.25 30.7192 308.096 30.122C308.95 29.5164 309.925 29.2136 311.02 29.2136C311.269 29.2136 311.547 29.2261 311.854 29.251C312.169 29.2675 312.43 29.2966 312.638 29.3381V33.4816C312.447 33.4153 312.144 33.3572 311.729 33.3074C311.323 33.2494 310.929 33.2203 310.547 33.2203C309.726 33.2203 308.988 33.3987 308.332 33.7554C307.685 34.1038 307.175 34.5891 306.802 35.2112C306.429 35.8334 306.242 36.551 306.242 37.3639V48.6001H301.737ZM323.155 56.1656C321.538 56.1656 320.148 55.9457 318.987 55.5061C317.825 55.0747 316.892 54.494 316.187 53.764C315.482 53.034 314.993 52.2252 314.719 51.3376L318.775 50.3546C318.958 50.7279 319.223 51.097 319.572 51.462C319.92 51.8353 320.389 52.1423 320.978 52.3828C321.575 52.6317 322.326 52.7561 323.23 52.7561C324.507 52.7561 325.565 52.445 326.403 51.8229C327.241 51.209 327.66 50.197 327.66 48.7867V45.1658H327.436C327.203 45.6303 326.863 46.1073 326.415 46.5967C325.976 47.0862 325.391 47.4968 324.661 47.8286C323.939 48.1604 323.031 48.3263 321.936 48.3263C320.468 48.3263 319.136 47.9821 317.942 47.2936C316.755 46.5967 315.81 45.5598 315.105 44.1828C314.408 42.7974 314.059 41.0637 314.059 38.9815C314.059 36.8828 314.408 35.1117 315.105 33.6683C315.81 32.2166 316.759 31.1174 317.954 30.3708C319.149 29.616 320.48 29.2385 321.948 29.2385C323.068 29.2385 323.989 29.4293 324.711 29.8109C325.441 30.1842 326.021 30.6363 326.453 31.1672C326.884 31.6898 327.212 32.1834 327.436 32.6479H327.685V29.4874H332.127V48.9112C332.127 50.5454 331.737 51.8975 330.957 52.9677C330.177 54.0378 329.111 54.8383 327.759 55.3692C326.407 55.9001 324.872 56.1656 323.155 56.1656ZM323.193 44.7925C324.147 44.7925 324.96 44.5602 325.631 44.0957C326.303 43.6311 326.814 42.9633 327.162 42.0923C327.51 41.2213 327.685 40.1761 327.685 38.9566C327.685 37.7538 327.51 36.7003 327.162 35.7961C326.822 34.8919 326.316 34.1909 325.644 33.6932C324.98 33.1871 324.163 32.9341 323.193 32.9341C322.189 32.9341 321.351 33.1954 320.679 33.7181C320.007 34.2407 319.501 34.9582 319.161 35.8707C318.821 36.7749 318.651 37.8036 318.651 38.9566C318.651 40.1263 318.821 41.1508 319.161 42.0301C319.509 42.9011 320.02 43.5813 320.692 44.0708C321.372 44.5519 322.205 44.7925 323.193 44.7925ZM345.205 48.9734C343.288 48.9734 341.633 48.5752 340.24 47.7788C338.854 46.9742 337.788 45.8377 337.042 44.3694C336.295 42.8928 335.922 41.1549 335.922 39.1557C335.922 37.1897 336.295 35.4642 337.042 33.9794C337.797 32.4862 338.85 31.3248 340.202 30.4953C341.555 29.6574 343.143 29.2385 344.968 29.2385C346.146 29.2385 347.258 29.4293 348.303 29.8109C349.356 30.1842 350.286 30.7649 351.09 31.5529C351.903 32.341 352.542 33.3448 353.006 34.5642C353.471 35.7753 353.703 37.2187 353.703 38.8944V40.2756H338.037V37.2395H349.386C349.377 36.3767 349.191 35.6094 348.826 34.9375C348.461 34.2573 347.95 33.7222 347.295 33.3323C346.648 32.9424 345.893 32.7475 345.03 32.7475C344.11 32.7475 343.301 32.9715 342.604 33.4194C341.907 33.8591 341.364 34.4398 340.974 35.1615C340.592 35.8749 340.397 36.6588 340.389 37.5132V40.1636C340.389 41.2752 340.592 42.2292 340.999 43.0256C341.405 43.8136 341.974 44.4192 342.704 44.8423C343.434 45.257 344.288 45.4644 345.267 45.4644C345.922 45.4644 346.515 45.3732 347.046 45.1907C347.577 44.9999 348.037 44.722 348.427 44.357C348.817 43.992 349.112 43.5399 349.311 43.0007L353.517 43.4735C353.251 44.5851 352.745 45.5557 351.999 46.3852C351.26 47.2065 350.315 47.8452 349.162 48.3015C348.008 48.7494 346.689 48.9734 345.205 48.9734Z" fill="url(#paint0_linear_44_43753)"/>
<path d="M34.9022 74.46H6.82107C3.24758 74.46 0.339844 71.5982 0.339844 68.0811V6.37893C0.339844 2.86184 3.24758 0 6.82107 0H73.6585C75.095 0 76.2598 1.14644 76.2598 2.56029C76.2598 3.97415 75.095 5.12059 73.6585 5.12059H6.82107C6.11582 5.12059 5.54256 5.6848 5.54256 6.37893V68.0811C5.54256 68.7752 6.11582 69.3394 6.82107 69.3394H34.9022C36.3388 69.3394 37.5036 70.4859 37.5036 71.8997C37.5036 73.3136 36.3388 74.46 34.9022 74.46Z" fill="white"/>
<path d="M14.7131 31.0434C14.1004 31.0434 13.4848 30.8286 12.9896 30.3902C11.9135 29.4384 11.8142 27.7938 12.7661 26.7187L18.0012 20.8053L12.8913 15.7908C11.8663 14.784 11.8509 13.1376 12.8566 12.1125C13.8624 11.0875 15.5099 11.072 16.5349 12.0778L23.4078 18.8236C24.3963 19.7937 24.4512 21.3679 23.5331 22.4046L16.6602 30.1686C16.1457 30.7495 15.4309 31.0453 14.7112 31.0453L14.7131 31.0434Z" fill="white"/>
<path d="M37.5991 30.2793H28.4352C26.9987 30.2793 25.834 29.1145 25.834 27.6781C25.834 26.2417 26.9987 25.0769 28.4352 25.0769H37.5991C39.0355 25.0769 40.2002 26.2417 40.2002 27.6781C40.2002 29.1145 39.0355 30.2793 37.5991 30.2793Z" fill="white"/>
<path d="M70.4737 17.6905L88.4597 0.420237C89.0229 -0.158362 89.9306 -0.136722 90.4688 0.468073L94.8631 5.40439C95.3751 5.97843 95.3643 6.87366 94.8403 7.43518L76.9184 25.7043C76.4313 26.226 76.3835 27.0437 76.8064 27.6246L82.2205 35.0598C82.5434 35.504 82.5988 36.102 82.3629 36.6032L80.7354 40.0599C80.4995 40.5622 80.0114 40.88 79.4765 40.88H70.0584C69.6735 40.88 69.3061 40.7148 69.0408 40.4233L56.2068 24.5528C55.6535 23.9435 55.7002 22.9719 56.309 22.4241L64.3301 15.1267C64.8965 14.6164 65.7456 14.6608 66.2609 15.2269L68.4733 17.6575C69.0136 18.2509 69.9127 18.2668 70.4715 17.6928L70.4737 17.6905Z" fill="url(#paint1_linear_44_43753)"/>
<path d="M88.0924 47.6294V46.3962C88.0924 45.4762 87.3468 44.7314 86.4277 44.7314H34.6833C33.7633 44.7314 33.0186 45.4771 33.0186 46.3962C33.0186 49.035 33.8885 51.4936 36.1255 52.8915C37.1323 53.5206 38.9589 54.2219 40.7826 55.0081C44.8308 56.7528 48.9282 58.8559 48.5467 63.2587C48.5419 63.3165 48.539 63.3743 48.5399 63.4321C48.5496 63.9552 48.3925 67.2394 43.116 69.1682C43.116 69.1682 41.4435 69.7838 41.5707 72.7954C41.5707 73.7154 42.3164 74.4601 43.2354 74.4601H62.4823H73.6366C74.5566 74.4601 75.3013 73.7145 75.3013 72.7954C75.4285 69.7828 73.756 69.1682 73.756 69.1682C68.3302 67.1845 68.0604 62.2211 68.0469 61.6758C68.0469 61.6401 68.044 61.6035 68.0402 61.5679C67.3118 53.6217 82.129 50.1506 86.7418 49.2643C87.526 49.114 88.0915 48.428 88.0915 47.6294H88.0924Z" fill="url(#paint2_linear_44_43753)"/>
</g>
<defs>
<linearGradient id="paint0_linear_44_43753" x1="183.332" y1="47.9104" x2="372.496" y2="5.60707" gradientUnits="userSpaceOnUse">
<stop stop-color="#01E0F4"/>
<stop offset="1" stop-color="#0155C3"/>
</linearGradient>
<linearGradient id="paint1_linear_44_43753" x1="37.5703" y1="20.44" x2="89.0872" y2="42.0598" gradientUnits="userSpaceOnUse">
<stop stop-color="#01E0F4"/>
<stop offset="1" stop-color="#0155C3"/>
</linearGradient>
<linearGradient id="paint2_linear_44_43753" x1="27.767" y1="64.4901" x2="93.4934" y2="70.6703" gradientUnits="userSpaceOnUse">
<stop stop-color="#01E0F4"/>
<stop offset="1" stop-color="#0155C3"/>
</linearGradient>
<clipPath id="clip0_44_43753">
<rect width="353.32" height="74.46" fill="white" transform="translate(0.339844)"/>
</clipPath>
</defs>
</svg>
