<svg width="150" height="150" viewBox="0 0 150 150" fill="none" xmlns="http://www.w3.org/2000/svg">
<path d="M57.3457 126H18.8784C13.9832 126 10 122.08 10 117.262V32.7383C10 27.9203 13.9832 24 18.8784 24H110.437C112.404 24 114 25.5705 114 27.5073C114 29.444 112.404 31.0145 110.437 31.0145H18.8784C17.9123 31.0145 17.127 31.7874 17.127 32.7383V117.262C17.127 118.213 17.9123 118.985 18.8784 118.985H57.3457C59.3136 118.985 60.9092 120.556 60.9092 122.493C60.9092 124.43 59.3136 126 57.3457 126Z" fill="white"/>
<path d="M29.6897 66.5252C28.8504 66.5252 28.0071 66.2309 27.3287 65.6305C25.8546 64.3266 25.7187 62.0738 27.0225 60.601L34.194 52.5005L27.1941 45.6313C25.7899 44.2522 25.7688 41.9967 27.1466 40.5926C28.5244 39.1884 30.7811 39.1672 32.1853 40.545L41.6003 49.7858C42.9543 51.1148 43.0296 53.2712 41.7719 54.6912L32.3569 65.3269C31.6522 66.1227 30.6729 66.5279 29.6871 66.5279L29.6897 66.5252Z" fill="white"/>
<path d="M61.0404 65.4786H48.4871C46.5194 65.4786 44.9238 63.883 44.9238 61.9153C44.9238 59.9476 46.5194 58.3521 48.4871 58.3521H61.0404C63.0081 58.3521 64.6036 59.9476 64.6036 61.9153C64.6036 63.883 63.0081 65.4786 61.0404 65.4786Z" fill="white"/>
<path d="M106.073 48.2336L130.711 24.5757C131.483 23.7831 132.726 23.8127 133.464 24.6412L139.483 31.4033C140.185 32.1896 140.17 33.416 139.452 34.1852L114.901 59.2114C114.234 59.926 114.169 61.0462 114.748 61.842L122.165 72.0272C122.607 72.6357 122.683 73.4548 122.36 74.1413L120.13 78.8766C119.807 79.5647 119.138 80 118.406 80H105.504C104.977 80 104.474 79.7738 104.11 79.3744L86.5295 57.634C85.7714 56.7993 85.8355 55.4684 86.6695 54.7179L97.6573 44.7215C98.4332 44.0225 99.5963 44.0833 100.302 44.8588L103.333 48.1883C104.073 49.0012 105.305 49.023 106.07 48.2367L106.073 48.2336Z" fill="url(#paint0_linear_44_43734)"/>
<path d="M130.209 89.2456V87.5564C130.209 86.296 129.188 85.2759 127.929 85.2759H57.0461C55.7858 85.2759 54.7656 86.2973 54.7656 87.5564C54.7656 91.1711 55.9573 94.5391 59.0218 96.454C60.4009 97.3158 62.9031 98.2765 65.4013 99.3534C70.9468 101.743 76.5596 104.624 76.037 110.656C76.0304 110.735 76.0265 110.814 76.0278 110.893C76.041 111.61 75.8259 116.109 68.5977 118.751C68.5977 118.751 66.3067 119.594 66.4809 123.72C66.4809 124.98 67.5023 126 68.7614 126H95.1269H110.407C111.667 126 112.687 124.979 112.687 123.72C112.861 119.593 110.57 118.751 110.57 118.751C103.138 116.034 102.768 109.234 102.75 108.487C102.75 108.438 102.746 108.388 102.74 108.339C101.743 97.4543 122.04 92.6994 128.359 91.4852C129.433 91.2793 130.208 90.3397 130.208 89.2456H130.209Z" fill="url(#paint1_linear_44_43734)"/>
<defs>
<linearGradient id="paint0_linear_44_43734" x1="61" y1="52" x2="131.571" y2="81.6162" gradientUnits="userSpaceOnUse">
<stop stop-color="#01E0F4"/>
<stop offset="1" stop-color="#0155C3"/>
</linearGradient>
<linearGradient id="paint1_linear_44_43734" x1="47.5717" y1="112.343" x2="137.608" y2="120.809" gradientUnits="userSpaceOnUse">
<stop stop-color="#01E0F4"/>
<stop offset="1" stop-color="#0155C3"/>
</linearGradient>
</defs>
</svg>
