<svg width="235" height="129" viewBox="0 0 235 129" fill="none" xmlns="http://www.w3.org/2000/svg">
<path d="M104.706 71.5122H77.7364C74.3043 71.5122 71.5117 68.7637 71.5117 65.3858V6.12639C71.5117 2.74854 74.3043 0 77.7364 0H141.928C143.307 0 144.426 1.10106 144.426 2.45893C144.426 3.81681 143.307 4.91787 141.928 4.91787H77.7364C77.059 4.91787 76.5085 5.45974 76.5085 6.12639V65.3858C76.5085 66.0525 77.059 66.5943 77.7364 66.5943H104.706C106.085 66.5943 107.204 67.6954 107.204 69.0533C107.204 70.4111 106.085 71.5122 104.706 71.5122Z" fill="white"/>
<path d="M85.3162 29.8144C84.7278 29.8144 84.1365 29.608 83.6609 29.187C82.6274 28.2729 82.5321 26.6934 83.4463 25.6609L88.4741 19.9816L83.5665 15.1656C82.5821 14.1987 82.5673 12.6174 83.5332 11.633C84.4992 10.6485 86.0814 10.6337 87.0659 11.5996L93.6667 18.0783C94.616 19.0101 94.6688 20.522 93.787 21.5175L87.1862 28.9742C86.6921 29.5322 86.0055 29.8162 85.3144 29.8162L85.3162 29.8144Z" fill="white"/>
<path d="M107.296 29.0806H98.4953C97.1157 29.0806 95.9971 27.962 95.9971 26.5824C95.9971 25.2029 97.1157 24.0842 98.4953 24.0842H107.296C108.676 24.0842 109.795 25.2029 109.795 26.5824C109.795 27.962 108.676 29.0806 107.296 29.0806Z" fill="white"/>
<path d="M138.868 16.9901L156.142 0.4036C156.683 -0.152093 157.555 -0.131309 158.072 0.449543L162.292 5.19043C162.784 5.74175 162.773 6.60154 162.27 7.14082L145.058 24.6867C144.59 25.1877 144.544 25.9731 144.95 26.531L150.15 33.6719C150.46 34.0985 150.513 34.6728 150.287 35.1541L148.724 38.474C148.497 38.9564 148.028 39.2616 147.515 39.2616H138.469C138.1 39.2616 137.747 39.103 137.492 38.823L125.166 23.5808C124.635 22.9956 124.68 22.0625 125.264 21.5363L132.968 14.5278C133.512 14.0378 134.327 14.0804 134.822 14.6241L136.947 16.9584C137.466 17.5283 138.329 17.5437 138.866 16.9923L138.868 16.9901Z" fill="url(#paint0_linear_1_531)"/>
<path d="M155.79 45.7436V44.5593C155.79 43.6757 155.074 42.9604 154.191 42.9604H104.495C103.612 42.9604 102.896 43.6766 102.896 44.5593C102.896 47.0936 103.732 49.4549 105.88 50.7974C106.847 51.4016 108.602 52.0752 110.353 52.8302C114.241 54.5059 118.176 56.5257 117.81 60.7542C117.805 60.8097 117.802 60.8652 117.803 60.9207C117.813 61.4231 117.662 64.5774 112.594 66.4297C112.594 66.4297 110.988 67.021 111.11 69.9134C111.11 70.797 111.826 71.5122 112.709 71.5122H131.194H141.906C142.79 71.5122 143.505 70.7961 143.505 69.9134C143.627 67.0201 142.021 66.4297 142.021 66.4297C136.81 64.5246 136.551 59.7577 136.538 59.234C136.538 59.1997 136.535 59.1646 136.532 59.1303C135.832 51.4988 150.063 48.1651 154.493 47.3138C155.246 47.1695 155.789 46.5107 155.789 45.7436H155.79Z" fill="url(#paint1_linear_1_531)"/>
<path d="M1.33846 100.58V96.8639H20.8657V100.58H13.301V121.339H8.90317V100.58H1.33846ZM29.9033 121.697C28.0629 121.697 26.4735 121.315 25.135 120.55C23.8045 119.777 22.7808 118.686 22.0637 117.275C21.3467 115.857 20.9882 114.188 20.9882 112.268C20.9882 110.38 21.3467 108.723 22.0637 107.297C22.7887 105.863 23.8006 104.747 25.0992 103.951C26.3978 103.146 27.9235 102.744 29.6762 102.744C30.8076 102.744 31.8752 102.927 32.879 103.293C33.8908 103.652 34.7831 104.209 35.5559 104.966C36.3367 105.723 36.9502 106.687 37.3963 107.858C37.8425 109.022 38.0655 110.408 38.0655 112.017V113.344H23.0198V110.428H33.9187C33.9107 109.599 33.7315 108.862 33.3809 108.217C33.0304 107.564 32.5404 107.05 31.911 106.675C31.2896 106.301 30.5646 106.114 29.736 106.114C28.8517 106.114 28.0749 106.329 27.4056 106.759C26.7364 107.181 26.2146 107.739 25.8401 108.432C25.4736 109.117 25.2864 109.87 25.2784 110.691V113.236C25.2784 114.304 25.4736 115.22 25.864 115.985C26.2544 116.742 26.8001 117.323 27.5012 117.73C28.2023 118.128 29.0229 118.327 29.9631 118.327C30.5925 118.327 31.1621 118.239 31.672 118.064C32.1819 117.881 32.6241 117.614 32.9985 117.263C33.373 116.913 33.6558 116.479 33.847 115.961L37.8863 116.415C37.6313 117.483 37.1454 118.415 36.4283 119.211C35.7192 120 34.811 120.614 33.7036 121.052C32.5962 121.482 31.3294 121.697 29.9033 121.697ZM41.7254 121.339V102.983H45.9201V106.042H46.1113C46.4459 104.982 47.0195 104.166 47.8321 103.592C48.6528 103.01 49.5889 102.72 50.6405 102.72C50.8795 102.72 51.1464 102.732 51.4412 102.755C51.744 102.771 51.9949 102.799 52.1941 102.839V106.819C52.0109 106.755 51.7201 106.699 51.3217 106.651C50.9313 106.596 50.5529 106.568 50.1864 106.568C49.3977 106.568 48.6886 106.739 48.0592 107.082C47.4378 107.416 46.9478 107.882 46.5893 108.48C46.2308 109.077 46.0515 109.766 46.0515 110.547V121.339H41.7254ZM55.0682 121.339V102.983H59.2031V106.102H59.4182C59.8006 105.05 60.434 104.229 61.3184 103.64C62.2027 103.042 63.2583 102.744 64.4853 102.744C65.7281 102.744 66.7758 103.046 67.6283 103.652C68.4887 104.249 69.0942 105.066 69.4447 106.102H69.636C70.0423 105.082 70.7274 104.269 71.6915 103.664C72.6634 103.05 73.8147 102.744 75.1452 102.744C76.8342 102.744 78.2125 103.277 79.2801 104.345C80.3476 105.412 80.8814 106.97 80.8814 109.018V121.339H76.5434V109.687C76.5434 108.548 76.2406 107.715 75.6351 107.189C75.0296 106.655 74.2887 106.388 73.4123 106.388C72.3687 106.388 71.552 106.715 70.9625 107.368C70.3809 108.014 70.0901 108.854 70.0901 109.89V121.339H65.8476V109.508C65.8476 108.559 65.5608 107.803 64.9872 107.237C64.4215 106.671 63.6806 106.388 62.7644 106.388C62.143 106.388 61.5773 106.548 61.0674 106.866C60.5575 107.177 60.1512 107.619 59.8484 108.193C59.5457 108.759 59.3943 109.42 59.3943 110.177V121.339H55.0682ZM85.2703 121.339V102.983H89.5964V121.339H85.2703ZM87.4453 100.377C86.7601 100.377 86.1706 100.15 85.6766 99.6961C85.1826 99.2341 84.9357 98.6803 84.9357 98.035C84.9357 97.3817 85.1826 96.828 85.6766 96.3739C86.1706 95.9118 86.7601 95.6808 87.4453 95.6808C88.1384 95.6808 88.728 95.9118 89.214 96.3739C89.7079 96.828 89.9549 97.3817 89.9549 98.035C89.9549 98.6803 89.7079 99.2341 89.214 99.6961C88.728 100.15 88.1384 100.377 87.4453 100.377ZM98.3711 110.583V121.339H94.045V102.983H98.1799V106.102H98.395C98.8172 105.074 99.4905 104.257 100.415 103.652C101.347 103.046 102.498 102.744 103.868 102.744C105.135 102.744 106.239 103.014 107.179 103.556C108.127 104.098 108.86 104.883 109.378 105.91C109.903 106.938 110.162 108.185 110.154 109.651V121.339H105.828V110.32C105.828 109.093 105.51 108.133 104.872 107.44C104.243 106.747 103.37 106.4 102.255 106.4C101.498 106.4 100.825 106.568 100.235 106.902C99.6538 107.229 99.1957 107.703 98.8611 108.324C98.5344 108.946 98.3711 109.699 98.3711 110.583ZM119.834 121.709C118.671 121.709 117.623 121.502 116.691 121.088C115.767 120.665 115.034 120.044 114.492 119.223C113.959 118.403 113.692 117.391 113.692 116.188C113.692 115.152 113.883 114.296 114.265 113.619C114.648 112.941 115.17 112.4 115.831 111.993C116.492 111.587 117.237 111.28 118.066 111.073C118.902 110.858 119.767 110.703 120.659 110.607C121.734 110.495 122.607 110.396 123.276 110.308C123.945 110.213 124.431 110.069 124.734 109.878C125.045 109.679 125.2 109.372 125.2 108.958V108.886C125.2 107.986 124.933 107.289 124.399 106.795C123.866 106.301 123.097 106.054 122.093 106.054C121.033 106.054 120.193 106.285 119.571 106.747C118.958 107.209 118.544 107.755 118.329 108.384L114.289 107.811C114.608 106.695 115.134 105.763 115.867 105.014C116.6 104.257 117.496 103.692 118.556 103.317C119.615 102.935 120.786 102.744 122.069 102.744C122.953 102.744 123.834 102.847 124.71 103.054C125.587 103.261 126.387 103.604 127.112 104.082C127.837 104.552 128.419 105.193 128.857 106.006C129.303 106.819 129.526 107.834 129.526 109.053V121.339H125.367V118.817H125.224C124.961 119.327 124.591 119.805 124.113 120.251C123.643 120.689 123.049 121.044 122.332 121.315C121.623 121.578 120.79 121.709 119.834 121.709ZM120.958 118.53C121.826 118.53 122.579 118.359 123.216 118.016C123.854 117.666 124.344 117.204 124.686 116.63C125.037 116.056 125.212 115.431 125.212 114.754V112.591C125.077 112.702 124.846 112.806 124.519 112.902C124.2 112.997 123.842 113.081 123.443 113.152C123.045 113.224 122.651 113.288 122.26 113.344C121.87 113.399 121.531 113.447 121.244 113.487C120.599 113.575 120.022 113.718 119.512 113.917C119.002 114.116 118.599 114.395 118.305 114.754C118.01 115.104 117.862 115.559 117.862 116.116C117.862 116.913 118.153 117.514 118.735 117.921C119.316 118.327 120.057 118.53 120.958 118.53ZM138.202 96.8639V121.339H133.876V96.8639H138.202Z" fill="white"/>
<path d="M142.842 121.339V96.8639H158.521V100.58H147.276V107.225H157.446V110.942H147.276V121.339H142.842ZM169.029 121.697C167.236 121.697 165.683 121.303 164.368 120.514C163.054 119.725 162.034 118.622 161.309 117.204C160.592 115.786 160.233 114.128 160.233 112.232C160.233 110.336 160.592 108.675 161.309 107.249C162.034 105.823 163.054 104.715 164.368 103.927C165.683 103.138 167.236 102.744 169.029 102.744C170.821 102.744 172.375 103.138 173.69 103.927C175.004 104.715 176.02 105.823 176.737 107.249C177.462 108.675 177.824 110.336 177.824 112.232C177.824 114.128 177.462 115.786 176.737 117.204C176.02 118.622 175.004 119.725 173.69 120.514C172.375 121.303 170.821 121.697 169.029 121.697ZM169.053 118.231C170.025 118.231 170.837 117.965 171.491 117.431C172.144 116.889 172.63 116.164 172.949 115.256C173.275 114.348 173.439 113.336 173.439 112.22C173.439 111.097 173.275 110.081 172.949 109.173C172.63 108.257 172.144 107.528 171.491 106.986C170.837 106.444 170.025 106.173 169.053 106.173C168.057 106.173 167.228 106.444 166.567 106.986C165.914 107.528 165.424 108.257 165.097 109.173C164.778 110.081 164.619 111.097 164.619 112.22C164.619 113.336 164.778 114.348 165.097 115.256C165.424 116.164 165.914 116.889 166.567 117.431C167.228 117.965 168.057 118.231 169.053 118.231ZM181.496 121.339V102.983H185.691V106.042H185.882C186.217 104.982 186.79 104.166 187.603 103.592C188.424 103.01 189.36 102.72 190.411 102.72C190.65 102.72 190.917 102.732 191.212 102.755C191.515 102.771 191.766 102.799 191.965 102.839V106.819C191.782 106.755 191.491 106.699 191.093 106.651C190.702 106.596 190.324 106.568 189.957 106.568C189.169 106.568 188.459 106.739 187.83 107.082C187.209 107.416 186.719 107.882 186.36 108.48C186.002 109.077 185.822 109.766 185.822 110.547V121.339H181.496ZM202.066 128.605C200.513 128.605 199.178 128.393 198.063 127.971C196.947 127.557 196.051 126.999 195.374 126.298C194.697 125.597 194.227 124.82 193.964 123.968L197.86 123.024C198.035 123.382 198.29 123.737 198.624 124.087C198.959 124.446 199.409 124.741 199.975 124.972C200.548 125.211 201.269 125.33 202.138 125.33C203.365 125.33 204.381 125.031 205.185 124.434C205.99 123.844 206.392 122.872 206.392 121.518V118.04H206.177C205.954 118.486 205.627 118.945 205.197 119.415C204.775 119.885 204.213 120.279 203.512 120.598C202.819 120.916 201.947 121.076 200.895 121.076C199.485 121.076 198.206 120.745 197.059 120.084C195.92 119.415 195.011 118.419 194.334 117.096C193.665 115.766 193.33 114.101 193.33 112.101C193.33 110.085 193.665 108.384 194.334 106.998C195.011 105.604 195.924 104.548 197.071 103.831C198.218 103.106 199.497 102.744 200.907 102.744C201.983 102.744 202.867 102.927 203.56 103.293C204.261 103.652 204.819 104.086 205.233 104.596C205.647 105.098 205.962 105.572 206.177 106.018H206.416V102.983H210.683V121.637C210.683 123.207 210.308 124.506 209.559 125.533C208.81 126.561 207.787 127.33 206.488 127.84C205.189 128.35 203.715 128.605 202.066 128.605ZM202.102 117.682C203.018 117.682 203.799 117.459 204.444 117.013C205.09 116.566 205.58 115.925 205.914 115.088C206.249 114.252 206.416 113.248 206.416 112.077C206.416 110.922 206.249 109.91 205.914 109.041C205.588 108.173 205.102 107.5 204.456 107.022C203.819 106.536 203.034 106.293 202.102 106.293C201.138 106.293 200.333 106.544 199.688 107.046C199.043 107.548 198.557 108.237 198.23 109.113C197.903 109.982 197.74 110.97 197.74 112.077C197.74 113.2 197.903 114.184 198.23 115.029C198.565 115.865 199.055 116.519 199.7 116.989C200.353 117.451 201.154 117.682 202.102 117.682ZM223.243 121.697C221.402 121.697 219.813 121.315 218.474 120.55C217.144 119.777 216.12 118.686 215.403 117.275C214.686 115.857 214.327 114.188 214.327 112.268C214.327 110.38 214.686 108.723 215.403 107.297C216.128 105.863 217.14 104.747 218.438 103.951C219.737 103.146 221.263 102.744 223.016 102.744C224.147 102.744 225.214 102.927 226.218 103.293C227.23 103.652 228.122 104.209 228.895 104.966C229.676 105.723 230.289 106.687 230.736 107.858C231.182 109.022 231.405 110.408 231.405 112.017V113.344H216.359V110.428H227.258C227.25 109.599 227.071 108.862 226.72 108.217C226.37 107.564 225.88 107.05 225.25 106.675C224.629 106.301 223.904 106.114 223.075 106.114C222.191 106.114 221.414 106.329 220.745 106.759C220.076 107.181 219.554 107.739 219.179 108.432C218.813 109.117 218.626 109.87 218.618 110.691V113.236C218.618 114.304 218.813 115.22 219.203 115.985C219.594 116.742 220.139 117.323 220.841 117.73C221.542 118.128 222.362 118.327 223.302 118.327C223.932 118.327 224.501 118.239 225.011 118.064C225.521 117.881 225.963 117.614 226.338 117.263C226.712 116.913 226.995 116.479 227.186 115.961L231.226 116.415C230.971 117.483 230.485 118.415 229.768 119.211C229.059 120 228.15 120.614 227.043 121.052C225.935 121.482 224.669 121.697 223.243 121.697Z" fill="url(#paint2_linear_1_531)"/>
<defs>
<linearGradient id="paint0_linear_1_531" x1="107.267" y1="19.6308" x2="156.745" y2="40.3947" gradientUnits="userSpaceOnUse">
<stop stop-color="#01E0F4"/>
<stop offset="1" stop-color="#0155C3"/>
</linearGradient>
<linearGradient id="paint1_linear_1_531" x1="97.8528" y1="61.9369" x2="160.977" y2="67.8724" gradientUnits="userSpaceOnUse">
<stop stop-color="#01E0F4"/>
<stop offset="1" stop-color="#0155C3"/>
</linearGradient>
<linearGradient id="paint2_linear_1_531" x1="68.0067" y1="120.856" x2="250.517" y2="80.5648" gradientUnits="userSpaceOnUse">
<stop stop-color="#01E0F4"/>
<stop offset="1" stop-color="#0155C3"/>
</linearGradient>
</defs>
</svg>
